<svg width="47" height="47" viewBox="0 0 47 47" fill="none" xmlns="http://www.w3.org/2000/svg">
<path d="M29.6948 22.9226C31.2345 21.3949 33.7305 21.3949 35.2702 22.9226C36.8099 24.4513 36.8099 26.9298 35.2702 28.4574L29.2967 34.3882L23.3232 28.4574C21.7835 26.9298 21.7835 24.4513 23.3232 22.9226C24.8629 21.3949 27.3589 21.3949 28.8986 22.9226L29.2967 23.3174L29.6948 22.9226V22.9226ZM31.7565 16.0268C32.7874 17.0609 33.4048 18.3495 33.6088 19.6874C32.1469 19.4155 30.605 19.6765 29.2967 20.4694C26.9389 19.0404 23.82 19.3398 21.778 21.3664C19.441 23.6859 19.3763 27.4145 21.5828 29.8118L21.778 30.0147L24.433 32.651L22.7168 34.3717L13.4171 25.0589C11.1108 22.4751 11.1974 18.5074 13.677 16.0268C16.1609 13.5439 20.1341 13.4606 22.7179 15.7767C25.2939 13.4639 29.2748 13.5407 31.7565 16.0268V16.0268Z" fill="#FF5868"/>
</svg>
