<svg width="22" height="22" viewBox="0 0 22 22" fill="none" xmlns="http://www.w3.org/2000/svg">
<path d="M3.25 10.9983L3.25 11C3.25 15.273 6.72918 18.75 11 18.75C15.273 18.75 18.75 15.2708 18.75 11C18.75 6.72918 15.273 3.25 11 3.25C10.9567 3.25 10.9152 3.2672 10.8845 3.29782C10.8539 3.32844 10.8367 3.36998 10.8367 3.41328V6.6875C10.8367 6.73081 10.8539 6.77234 10.8845 6.80296C10.9152 6.83358 10.9567 6.85078 11 6.85078C11.0433 6.85078 11.0848 6.83358 11.1155 6.80296C11.1461 6.77234 11.1633 6.73081 11.1633 6.6875V4.10938V3.55954L11.7106 3.61162C15.4723 3.96954 18.4234 7.1457 18.4234 11C18.4234 15.0936 15.0936 18.4234 11 18.4234C6.90664 18.4234 3.57702 15.0941 3.57656 11.0008C3.57656 11.0006 3.57656 11.0003 3.57656 11H4.07656C4.07342 10.0688 4.25967 9.14668 4.62398 8.28969C4.98829 7.4327 5.52306 6.65874 6.19578 6.01484L3.25 10.9983ZM3.25 10.9983C3.24637 9.95648 3.45468 8.92485 3.86225 7.96609C4.26983 7.00734 4.86815 6.14151 5.62084 5.42125L5.62091 5.42133M3.25 10.9983L5.62091 5.42133M5.62091 5.42133L5.62817 5.4141M5.62091 5.42133L5.62817 5.4141M5.62817 5.4141C5.64351 5.3988 5.66175 5.3867 5.68182 5.37852L5.49312 4.9155L5.62817 5.4141ZM10.3527 11.7748L7.37563 7.37207L11.7758 10.3474C11.9911 10.5046 12.1367 10.7397 12.1813 11.0027C12.2263 11.2679 12.1652 11.5402 12.011 11.7606C11.8568 11.981 11.6221 12.1319 11.3576 12.1805C11.0945 12.229 10.823 12.1724 10.6011 12.0232C10.505 11.9548 10.4211 11.8709 10.3527 11.7748ZM11 0.75C5.33886 0.75 0.75 5.33886 0.75 11C0.75 16.6611 5.33886 21.25 11 21.25C16.6611 21.25 21.25 16.6611 21.25 11C21.25 5.33886 16.6611 0.75 11 0.75Z" fill="white" stroke="#FF5E6B"/>
</svg>
