<svg width="30" height="30" viewBox="0 0 30 30" fill="none" xmlns="http://www.w3.org/2000/svg">
<path d="M2.8125 15C2.8125 21.7307 8.26934 27.1875 15 27.1875C21.7307 27.1875 27.1875 21.7307 27.1875 15C27.1875 8.26934 21.7307 2.8125 15 2.8125C8.26934 2.8125 2.8125 8.26934 2.8125 15ZM17.8928 15L12.9311 10.0377C12.7627 9.86045 12.6702 9.62443 12.6733 9.37997C12.6764 9.13551 12.7749 8.90194 12.9478 8.72906C13.1207 8.55618 13.3543 8.45768 13.5987 8.45455C13.8432 8.45142 14.0792 8.54391 14.2564 8.7123L19.8814 14.3373C20.0571 14.5131 20.1558 14.7515 20.1558 15C20.1558 15.2485 20.0571 15.4869 19.8814 15.6627L14.2564 21.2877C14.0792 21.4561 13.8432 21.5486 13.5987 21.5455C13.3543 21.5423 13.1207 21.4438 12.9478 21.2709C12.7749 21.0981 12.6764 20.8645 12.6733 20.62C12.6702 20.3756 12.7627 20.1396 12.9311 19.9623L17.8928 15Z" fill="white" fill-opacity="0.7"/>
<path d="M18.2463 15.3535L18.5998 15L18.2463 14.6465L13.29 9.68953C13.2137 9.60725 13.1718 9.49873 13.1733 9.38637C13.1747 9.27229 13.2207 9.16329 13.3014 9.08261C13.382 9.00194 13.491 8.95597 13.6051 8.95451C13.7175 8.95307 13.826 8.99491 13.9083 9.07123L19.5278 14.6907C19.5278 14.6908 19.5279 14.6908 19.5279 14.6909C19.6098 14.7729 19.6558 14.8841 19.6558 15C19.6558 15.1159 19.6098 15.2271 19.5279 15.3091C19.5279 15.3092 19.5278 15.3092 19.5278 15.3093L13.9083 20.9288C13.826 21.0051 13.7175 21.0469 13.6051 21.0455C13.491 21.044 13.382 20.9981 13.3014 20.9174C13.2207 20.8367 13.1747 20.7277 13.1733 20.6136C13.1718 20.5013 13.2137 20.3928 13.29 20.3105L18.2463 15.3535ZM2.3125 15C2.3125 22.0068 7.99319 27.6875 15 27.6875C22.0068 27.6875 27.6875 22.0068 27.6875 15C27.6875 7.99319 22.0068 2.3125 15 2.3125C7.99319 2.3125 2.3125 7.99319 2.3125 15Z" stroke="#808080" stroke-opacity="0.81"/>
</svg>
