<svg width="23" height="20" viewBox="0 0 23 20" fill="none" xmlns="http://www.w3.org/2000/svg">
<path d="M21.3695 8.15378L21.3694 8.15366C19.8685 6.66453 17.4397 6.66013 15.9334 8.14046C14.427 6.66013 11.9983 6.66453 10.4974 8.15366L10.4973 8.15378C8.99002 9.65028 8.9898 12.0781 10.4973 13.5739C10.4973 13.574 10.4973 13.574 10.4974 13.574L15.5811 18.6214L15.9334 18.9711L16.2857 18.6214L21.3694 13.574C21.3694 13.574 21.3694 13.574 21.3695 13.5739C22.8769 12.0781 22.8767 9.65028 21.3695 8.15378ZM15.9467 8.15358L15.9334 8.16698L15.9201 8.15358L15.92 8.15366L15.5813 8.48958L15.5974 8.50579L15.9334 8.8446L16.2694 8.50579L16.2855 8.48958L15.9467 8.15366L15.9467 8.15358ZM18.3809 2.28685L18.3807 2.2866C16.184 0.0860122 12.7219 -0.0785768 10.3342 1.77604C7.94099 -0.0811353 4.48476 0.0889291 2.28652 2.28621L2.28636 2.28636C-0.0123248 4.58606 -0.0925757 8.26407 2.04578 10.6597L2.0551 10.6701L2.06499 10.68L9.97961 18.6058L10.3336 18.9603L10.6874 18.6056L12.1481 17.1412L12.502 16.7864L12.1464 16.4333L9.89085 14.1937L9.73259 14.0292C8.03972 12.1857 8.09069 9.32162 9.8867 7.53909C11.4578 5.9798 13.8593 5.74839 15.6742 6.84835L15.9334 7.0054L16.1925 6.84835C17.1984 6.23874 18.3855 6.03731 19.5118 6.24685L20.2036 6.37556L20.0975 5.67993C19.9084 4.43946 19.3356 3.24458 18.3809 2.28685Z" fill="white" stroke="#FF808C"/>
</svg>
