<svg width="21" height="21" viewBox="0 0 21 21" fill="none" xmlns="http://www.w3.org/2000/svg">
<path d="M0.541667 10.4097L0.525082 10.5L0.541684 10.5904C1.40788 15.3034 5.53642 18.875 10.5001 18.875C15.4637 18.875 19.5932 15.3034 20.4585 10.5903L20.4751 10.5L20.4585 10.4096C19.5923 5.69664 15.4637 2.125 10.5001 2.125C5.53649 2.125 1.40697 5.69658 0.541667 10.4097ZM13.2401 13.24C12.5134 13.9667 11.5278 14.375 10.5001 14.375C9.47236 14.375 8.48674 13.9667 7.76003 13.24C7.03333 12.5133 6.62507 11.5277 6.62507 10.5C6.62507 9.47229 7.03333 8.48666 7.76003 7.75996C8.48674 7.03326 9.47236 6.625 10.5001 6.625C11.5278 6.625 12.5134 7.03326 13.2401 7.75996C13.9668 8.48666 14.3751 9.47229 14.3751 10.5C14.3751 11.5277 13.9668 12.5133 13.2401 13.24ZM8.29036 12.7097C8.87641 13.2958 9.67127 13.625 10.5001 13.625C11.3289 13.625 12.1237 13.2958 12.7098 12.7097C13.2958 12.1237 13.6251 11.3288 13.6251 10.5C13.6251 9.6712 13.2958 8.87634 12.7098 8.29029C12.1237 7.70424 11.3289 7.375 10.5001 7.375C9.67127 7.375 8.87641 7.70424 8.29036 8.29029C7.70431 8.87634 7.37507 9.6712 7.37507 10.5C7.37507 11.3288 7.70431 12.1237 8.29036 12.7097Z" fill="white" stroke="#FF5E6B"/>
</svg>
