<svg width="30" height="30" viewBox="0 0 30 30" fill="none" xmlns="http://www.w3.org/2000/svg">
<path d="M11.7537 14.6465L11.4002 15L11.7537 15.3535L16.71 20.3105C16.7863 20.3927 16.8282 20.5013 16.8267 20.6136C16.8253 20.7277 16.7793 20.8367 16.6986 20.9174C16.618 20.9981 16.509 21.044 16.3949 21.0455C16.2825 21.0469 16.174 21.0051 16.0917 20.9288L10.4722 15.3093C10.4722 15.3092 10.4721 15.3092 10.4721 15.3091C10.3902 15.2271 10.3442 15.1159 10.3442 15C10.3442 14.8841 10.3902 14.7729 10.4721 14.6909C10.4721 14.6908 10.4722 14.6908 10.4722 14.6907L16.0917 9.07124C16.174 8.99491 16.2825 8.95307 16.3949 8.95451C16.509 8.95596 16.618 9.00193 16.6986 9.08261C16.7793 9.16329 16.8253 9.27229 16.8267 9.38637C16.8282 9.49872 16.7863 9.60724 16.71 9.68951L11.7537 14.6465ZM27.6875 15C27.6875 7.99319 22.0068 2.3125 15 2.3125C7.99319 2.3125 2.3125 7.99319 2.3125 15C2.3125 22.0068 7.99319 27.6875 15 27.6875C22.0068 27.6875 27.6875 22.0068 27.6875 15Z" fill="white" fill-opacity="0.7" stroke="#7F7A78"/>
</svg>
